<svg width="100%" height="100%" viewBox="0 0 115 98" fill="none" xmlns="http://www.w3.org/2000/svg">
<line y1="87.9336" x2="59.4823" y2="87.9336" stroke="white" stroke-width="6"/>
<line y1="72.7773" x2="59.4823" y2="72.7773" stroke="white" stroke-width="6"/>
<line y1="57.6221" x2="59.4823" y2="57.6221" stroke="white" stroke-width="6"/>
<rect x="72.2705" y="12.0928" width="39.1764" height="32.3941" stroke="white" stroke-width="6"/>
<path d="M79.211 85.3303L78.771 90.4453H65.626V57.0603H64.801L65.351 51.9453H70.851V85.3303H79.211ZM86.0855 90.4453H80.8605L83.8305 57.0603H82.8405L83.3905 51.9453H93.4555L96.8655 90.4453H91.6405L91.0355 83.8453H86.6905L86.0855 90.4453ZM87.1305 78.7303H90.5955L88.8905 59.5903L87.1305 78.7303ZM98.4906 90.8303V57.0603H97.6656L98.2156 51.9453H106.906C108.446 51.9453 109.692 52.422 110.646 53.3753C111.599 54.292 112.076 55.5203 112.076 57.0603V68.6103C112.076 69.1236 112.002 69.6186 111.856 70.0953C112.736 71.0486 113.176 72.2586 113.176 73.7253V85.7153C113.176 87.2553 112.589 88.502 111.416 89.4553C110.279 90.372 108.941 90.8303 107.401 90.8303H98.4906ZM106.576 57.0603H103.716V68.6103H106.576C106.759 68.6103 106.851 68.5186 106.851 68.3353V57.3353C106.851 57.152 106.759 57.0603 106.576 57.0603ZM107.676 73.7253H103.716V85.7153H107.676C107.859 85.7153 107.951 85.6236 107.951 85.4403V74.0003C107.951 73.817 107.859 73.7253 107.676 73.7253Z" fill="white"/>
<path d="M15.4 30.28V42.105C15.4 43.645 14.9233 44.8917 13.97 45.845C13.0167 46.7617 11.77 47.22 10.23 47.22H6.27C4.73 47.22 3.48333 46.7617 2.53 45.845C1.57667 44.8917 1.1 43.645 1.1 42.105V13.395C1.1 11.855 1.57667 10.6267 2.53 9.71C3.48333 8.75666 4.73 8.28 6.27 8.28H10.23C11.77 8.28 13.0167 8.75666 13.97 9.71C14.9233 10.6267 15.4 11.855 15.4 13.395V25.715L10.175 25.165V13.67C10.175 13.4867 10.0833 13.395 9.9 13.395H6.6C6.41667 13.395 6.325 13.4867 6.325 13.67V41.83C6.325 42.0133 6.41667 42.105 6.6 42.105H9.9C10.0833 42.105 10.175 42.0133 10.175 41.83V30.28H15.4ZM17.0393 13.615L17.5893 8.5H26.2793C27.8193 8.5 29.0659 8.97666 30.0193 9.93C30.9726 10.8467 31.4493 12.075 31.4493 13.615V30.83C31.4493 31.6367 31.2843 32.37 30.9543 33.03C30.6243 33.6533 30.1843 34.185 29.6343 34.625L33.1543 47H27.8743L24.7393 35.945H23.0893V47H17.8643V13.615H17.0393ZM25.9493 13.615H23.0893V30.83H25.9493C26.1326 30.83 26.2243 30.7383 26.2243 30.555V13.89C26.2243 13.7067 26.1326 13.615 25.9493 13.615ZM46.7246 41.885L46.2846 47H34.2396V13.615H33.4146L33.9646 8.5H46.7246L46.1746 13.615H39.4646V25.165H45.6246L45.0746 30.28H39.4646V41.885H46.7246ZM63.2027 41.885C63.2027 43.425 62.7261 44.6717 61.7727 45.625C60.8194 46.5417 59.5727 47 58.0327 47H48.9027V13.615H48.0777L48.6277 8.5H58.0327C59.5727 8.5 60.8194 8.97666 61.7727 9.93C62.7261 10.8467 63.2027 12.075 63.2027 13.615V41.885ZM57.7027 13.615H54.1277V41.885H57.7027C57.8861 41.885 57.9777 41.7933 57.9777 41.61V13.89C57.9777 13.7067 57.8861 13.615 57.7027 13.615Z" fill="white"/>
<path d="M105.51 19.25C105.55 19.25 105.57 19.31 105.57 19.43C105.57 19.55 105.55 19.61 105.51 19.61C104.77 19.61 104.07 19.93 103.41 20.57C102.77 21.19 102.24 22.05 101.82 23.15L96.27 37.97C96.25 38.05 96.14 38.09 95.94 38.09C95.74 38.09 95.63 38.05 95.61 37.97L91.77 29.84L88.74 37.97C88.72 38.05 88.61 38.09 88.41 38.09C88.21 38.09 88.1 38.05 88.08 37.97L80.43 21.74C80.13 21.1 79.88 20.64 79.68 20.36C79.5 20.08 79.29 19.89 79.05 19.79C78.83 19.67 78.53 19.61 78.15 19.61C78.09 19.61 78.06 19.55 78.06 19.43C78.06 19.31 78.09 19.25 78.15 19.25C78.45 19.25 78.66 19.26 78.78 19.28C79.18 19.32 79.7 19.34 80.34 19.34C81.68 19.34 82.81 19.32 83.73 19.28C83.99 19.26 84.31 19.25 84.69 19.25C84.75 19.25 84.78 19.31 84.78 19.43C84.78 19.55 84.75 19.61 84.69 19.61C84.19 19.61 83.83 19.66 83.61 19.76C83.41 19.86 83.31 20.04 83.31 20.3C83.31 20.64 83.54 21.3 84 22.28L89.4 33.74L91.29 28.79L87.96 21.74C87.62 21.02 87.3 20.49 87 20.15C86.7 19.79 86.38 19.61 86.04 19.61C85.98 19.61 85.95 19.55 85.95 19.43C85.95 19.31 85.98 19.25 86.04 19.25C86.24 19.25 86.47 19.27 86.73 19.31C87.01 19.33 87.4 19.34 87.9 19.34C89.04 19.34 89.99 19.32 90.75 19.28C90.95 19.26 91.21 19.25 91.53 19.25C91.59 19.25 91.62 19.31 91.62 19.43C91.62 19.55 91.59 19.61 91.53 19.61C91.25 19.61 91.04 19.65 90.9 19.73C90.78 19.79 90.72 19.91 90.72 20.09C90.72 20.43 90.99 21.16 91.53 22.28L92.85 25.07L93.6 23.06C94.04 21.92 94.26 21.06 94.26 20.48C94.26 19.9 94.01 19.61 93.51 19.61C93.45 19.61 93.42 19.55 93.42 19.43C93.42 19.31 93.45 19.25 93.51 19.25C93.67 19.25 93.84 19.27 94.02 19.31C94.22 19.33 94.7 19.34 95.46 19.34C95.8 19.34 96.21 19.32 96.69 19.28L97.8 19.25C97.84 19.25 97.86 19.31 97.86 19.43C97.86 19.55 97.84 19.61 97.8 19.61C96.46 19.61 95.35 20.79 94.47 23.15L93.36 26.12L96.96 33.71L100.83 23.36C101.07 22.72 101.19 22.14 101.19 21.62C101.19 21 101.03 20.51 100.71 20.15C100.41 19.79 100 19.61 99.48 19.61C99.42 19.61 99.39 19.55 99.39 19.43C99.39 19.31 99.42 19.25 99.48 19.25L100.86 19.28C101.58 19.32 102.24 19.34 102.84 19.34C103.24 19.34 103.7 19.32 104.22 19.28L105.51 19.25Z" fill="white"/>
</svg>
